<?xml version="1.0" encoding="UTF-8"?>
<svg width="135px" height="28px" viewBox="0 0 135 28" version="1.1" xmlns="http://www.w3.org/2000/svg" xmlns:xlink="http://www.w3.org/1999/xlink">
    <title>logo-12</title>
    <g id="Page-1" stroke="none" stroke-width="1" fill="none" fill-rule="evenodd">
        <g id="logo-12" fill-rule="nonzero">
            <path d="M19.99,22.759 L2.05,10.384 C0.232,9.13 0.85,6.519 3.117,5.905 L22.184,0.73 C23.0034537,0.434311668 23.9152296,0.552178637 24.6325535,1.0465291 C25.3498775,1.54087956 25.7846033,2.35096673 25.8,3.222 L24.67,20.771 C24.536,22.854 21.808,24.013 19.99,22.759 Z" id="Path" fill="#E9327C"></path>
            <path d="M14.3,25.814 L3.731,5.145 C3.23841261,4.18090984 3.32747664,3.02211878 3.96160695,2.14462752 C4.59573727,1.26713626 5.66802394,0.818883647 6.738,0.984 L26.325,4.007 C27.2397998,4.14820085 28.0311691,4.72005788 28.4523965,5.54429316 C28.8736239,6.36852845 28.8734764,7.34489202 28.452,8.169 L19.429,25.815 C18.9350341,26.7762539 17.9449404,27.3802952 16.8641947,27.3802952 C15.783449,27.3802952 14.7935911,26.7754464 14.3,25.814 L14.3,25.814 Z" id="Path" fill="#1DACE3"></path>
            <path d="M25.752,3.918 L15.988,2.411 L4,5.666 L8.785,15.027 L19.99,22.759 C20.2372009,22.9276543 20.5091128,23.0568631 20.796,23.142 L25.052,14.819 L25.752,3.918 Z" id="Path" fill="#001A49"></path>
            <path d="M75.209,6.334 C75.209,5.32055748 76.0305575,4.499 77.044,4.499 C78.0574425,4.499 78.879,5.32055748 78.879,6.334 C78.879,7.34744252 78.0574425,8.169 77.044,8.169 C76.0348505,8.15871004 75.21929,7.34314955 75.209,6.334 L75.209,6.334 Z M75.515,9.066 L78.574,9.066 L78.574,19.26 L75.515,19.26 L75.515,9.066 Z" id="Shape" fill="#001A49"></path>
            <path d="M91.784,14.163 C91.8557805,15.5239097 91.3819363,16.8572653 90.4674426,17.8676756 C89.552949,18.878086 88.2733041,19.4821343 86.912,19.546 C85.7639207,19.6084933 84.6485288,19.1517627 83.874,18.302 L83.874,23.338 L80.816,23.338 L80.816,9.066 L83.874,9.066 L83.874,10.024 C84.6487159,9.17460658 85.7640815,8.71825389 86.912,8.781 C88.2732162,8.84460748 89.5528627,9.44843853 90.4673827,10.4586903 C91.3819027,11.4689421 91.8557771,12.8021901 91.784,14.163 L91.784,14.163 Z M88.726,14.163 C88.6925093,12.8309302 87.5913229,11.7749709 86.2590199,11.7973421 C84.9267169,11.8197132 83.8616032,12.9120475 83.8728532,14.2444908 C83.8841032,15.5769341 84.9675092,16.6511281 86.3,16.651 C86.9631035,16.6808774 87.6074046,16.4261509 88.0708065,15.9509061 C88.5342083,15.4756613 88.772598,14.8251386 88.726,14.163 L88.726,14.163 Z" id="Shape" fill="#001A49"></path>
            <path d="M101.223,16.2 C101.223,18.545 99.184,19.544 96.982,19.544 C95.1618877,19.7087003 93.4252828,18.7470895 92.599,17.117 L95.249,15.609 C95.471014,16.3679062 96.1935042,16.8681879 96.982,16.809 C97.716,16.809 98.082,16.584 98.082,16.177 C98.082,15.055 93.067,15.647 93.067,12.119 C93.067,9.897 94.942,8.776 97.067,8.776 C98.6902682,8.72504579 100.212923,9.56049477 101.042,10.957 L98.433,12.364 C98.199683,11.8169338 97.6617403,11.4625059 97.067,11.464 C96.537,11.464 96.211,11.664 96.211,12.035 C96.208,13.205 101.223,12.43 101.223,16.2 Z" id="Path" fill="#001A49"></path>
            <path d="M112.4,9.066 L112.4,19.26 L109.342,19.26 L109.342,18.3 C108.625385,19.1578238 107.541153,19.6203701 106.426,19.544 C104.367,19.544 102.614,18.076 102.614,15.323 L102.614,9.066 L105.672,9.066 L105.672,14.877 C105.619894,15.3687752 105.786974,15.8585454 106.128768,16.2159455 C106.470562,16.5733456 106.95239,16.7621121 107.446,16.732 C108.567,16.732 109.346,16.08 109.346,14.632 L109.346,9.066 L112.4,9.066 Z" id="Path" fill="#001A49"></path>
            <path d="M129.928,13 L129.928,19.26 L126.87,19.26 L126.87,13.266 C126.87,12.247 126.38,11.594 125.402,11.594 C124.382,11.594 123.812,12.308 123.812,13.511 L123.812,19.26 L120.753,19.26 L120.753,13.266 C120.753,12.247 120.264,11.594 119.285,11.594 C118.266,11.594 117.695,12.308 117.695,13.511 L117.695,19.26 L114.637,19.26 L114.637,9.066 L117.7,9.066 L117.7,10 C118.34397,9.15494399 119.372757,8.69439989 120.432,8.777 C121.496801,8.72493535 122.510799,9.23554115 123.103,10.122 C123.791924,9.19516222 124.908661,8.6872114 126.06,8.777 C128.4,8.781 129.928,10.452 129.928,13 Z" id="Path" fill="#001A49"></path>
            <circle id="Oval" fill="#001A49" cx="132.519" cy="6.733" r="2.27"></circle>
            <path d="M33.457,4.377 L36.516,4.377 L36.516,19.26 L33.457,19.26 L33.457,4.377 Z M38.248,14.163 C38.2411193,11.97737 39.5524155,10.0031226 41.5697028,9.16194622 C43.5869901,8.32076981 45.9124092,8.77856527 47.4603252,10.3216083 C49.0082413,11.8646512 49.4733668,14.1886153 48.6385552,16.2085449 C47.8037437,18.2284744 45.8336408,19.5459892 43.648,19.546 C42.2141368,19.5613384 40.8342872,18.9996815 39.8187375,17.9873288 C38.8031878,16.9749762 38.2371828,15.5969045 38.248,14.163 L38.248,14.163 Z M45.996,14.163 C45.9625196,12.8763654 44.8982678,11.8571718 43.6113887,11.8793483 C42.3245096,11.9015247 41.2960063,12.9567823 41.3068772,14.2438066 C41.3177481,15.5308308 42.3639299,16.5685645 43.651,16.569 C44.289434,16.5871936 44.9063892,16.3375863 45.3525677,15.8805811 C45.7987461,15.4235758 46.0334925,14.8008144 46,14.163 L45.996,14.163 Z M61.245,9.063 L61.245,18.748 C61.245,22.173 58.574,23.62 55.863,23.62 C53.9175513,23.7668505 52.0529883,22.8148892 51.031,21.153 L53.64,19.644 C54.0712327,20.5152377 54.9978711,21.0273798 55.965,20.929 C56.57556,21.0123758 57.1909692,20.8141804 57.6381211,20.3901637 C58.0852731,19.966147 58.3158523,19.3621246 58.265,18.748 L58.265,17.81 C57.5385843,18.6983116 56.4341975,19.1898509 55.288,19.135 C52.4906204,19.0480666 50.2679309,16.7552301 50.2679309,13.9565 C50.2679309,11.1577699 52.4906204,8.86493343 55.288,8.778 C56.4341975,8.72314906 57.5385843,9.21468839 58.265,10.103 L58.265,9.063 L61.245,9.063 Z M58.269,13.956 C58.3102229,12.9487177 57.735155,12.0174704 56.8160844,11.6031927 C55.8970137,11.1889149 54.8184095,11.3747576 54.0909781,12.0727264 C53.3635467,12.7706953 53.1332929,13.8406989 53.5092392,14.7761032 C53.8851855,15.7115076 54.7918746,16.324565 55.8,16.325 C56.4497186,16.3706825 57.0884932,16.1397161 57.5587524,15.6890749 C58.0290115,15.2384337 58.2869717,14.6100746 58.269,13.959 L58.269,13.956 Z M62.976896,14.156 C62.9701193,11.97037 64.2814155,9.99612264 66.2987028,9.15494622 C68.3159901,8.31376981 70.6414092,8.77156527 72.1893252,10.3146083 C73.7372413,11.8576512 74.2023668,14.1816153 73.3675552,16.2015449 C72.5327437,18.2214744 70.5626408,19.5389892 68.377,19.539 C66.9443589,19.5543124 65.5655903,18.993611 64.5502484,17.9827817 C63.5349065,16.9719525 62.9680692,15.5956951 62.976896,14.163 L62.976896,14.156 Z M70.725,14.156 C70.6920617,12.8685355 69.6273853,11.8483397 68.3396874,11.8703424 C67.0519896,11.8923451 66.0227884,12.9483188 66.033854,14.236157 C66.0449196,15.5239953 67.0921142,16.5621277 68.38,16.562 C69.0164689,16.578922 69.6311818,16.3297555 70.0762389,15.8744498 C70.5212959,15.4191442 70.7564054,14.7989188 70.725,14.163 L70.725,14.156 Z" id="Shape" fill="#001A49"></path>
        </g>
    </g>
</svg>